<svg width="25" height="21" viewBox="0 0 25 21" fill="none" xmlns="http://www.w3.org/2000/svg">
<path d="M24.9523 2.42109C24.0328 2.82422 23.0484 3.10156 22.0109 3.22735C23.0695 2.59219 23.8789 1.5875 24.2648 0.390625C23.2719 0.96875 22.1734 1.3875 21.0055 1.62422C20.0742 0.627344 18.743 0 17.2656 0C14.4336 0 12.1383 2.29453 12.1383 5.12266C12.1383 5.52969 12.1875 5.92031 12.2727 6.29063C8.0125 6.09141 4.23594 4.04453 1.71016 0.952344C1.26641 1.70547 1.01406 2.58047 1.01406 3.53281C1.01406 5.31485 1.92109 6.87735 3.29219 7.7961C2.45391 7.77188 1.66484 7.53985 0.973437 7.15782V7.21953C0.973437 9.70469 2.73906 11.7766 5.08281 12.2484C4.65547 12.3617 4.19922 12.4273 3.73594 12.4273C3.40703 12.4273 3.09297 12.3953 2.77969 12.3375C3.43906 14.3719 5.32656 15.8531 7.57656 15.8977C5.82734 17.2688 3.61016 18.0859 1.22109 18.0859C0.814062 18.0859 0.407813 18.0664 0 18.0172C2.27891 19.4703 4.96875 20.3203 7.87422 20.3203C17.3016 20.3203 22.4531 12.5117 22.4531 5.74922C22.4531 5.5336 22.4531 5.31406 22.4367 5.09375C23.4422 4.37735 24.3125 3.46953 25 2.44063L24.9523 2.42109Z" fill="#5DD6C1"/>
</svg>
